<?xml version="1.0" standalone="no"?>
<!DOCTYPE svg PUBLIC "-//W3C//DTD SVG 20010904//EN"
 "http://www.w3.org/TR/2001/REC-SVG-20010904/DTD/svg10.dtd">
<svg version="1.0" xmlns="http://www.w3.org/2000/svg"
 width="128.000000pt" height="169.075052pt" viewBox="0 0 128.000000 169.075052"
 preserveAspectRatio="xMidYMid meet">
<metadata>
Created by potrace 1.12, written by Peter Selinger 2001-2015
</metadata>
<g transform="translate(-34.000000,183.000000) scale(0.100000,-0.100000)"
fill="#92C642" stroke="none">
<path d="M875 1818 c-3 -7 -4 -386 -3 -843 l3 -830 93 -3 92 -3 0 846 0 845
-90 0 c-63 0 -92 -4 -95 -12z"/>
<path d="M1140 1360 l0 -460 130 0 130 0 0 -225 0 -225 -35 0 -35 0 0 190 0
190 -95 0 -95 0 0 -341 c0 -319 1 -340 18 -335 9 3 46 12 82 21 113 29 277
114 353 183 l27 26 0 343 0 343 -145 0 -145 0 0 230 0 230 35 0 35 0 0 -190 0
-190 110 0 110 0 0 218 0 218 -27 26 c-92 84 -262 165 -425 202 l-28 6 0 -460z"/>
<path d="M688 1784 l-78 -25 0 -654 0 -655 -35 0 -35 0 0 636 0 636 -47 -28
c-27 -15 -72 -46 -100 -68 l-53 -41 0 -600 0 -600 53 -41 c101 -78 209 -133
320 -164 39 -11 74 -20 77 -20 3 0 4 371 2 825 -2 648 -5 825 -15 825 -6 -1
-47 -12 -89 -26z"/>
</g>
</svg>
